# xmcd
#
# Track frame offsets: 
#        151
#        19996
#        31235
#        47594
#        63185
#        79164
#        94147
#        109430
#        123877
#        137354
#        155023
#        164106
#
# Disc length: 2421 seconds
#
# Revision: 0
# Processed by: cddbd v1.5.2PL0 Copyright (c) Steve Scherf et al.
# Submitted via: ExactAudioCopy v0.99pb4
#
DISCID=9c09730c
DTITLE=古璇 - 往事只能回味
DYEAR=2006
DGENRE=Blues
TTITLE0=眼淚\為你流
TTITLE1=沉默的夜空
TTITLE2=走遠路
TTITLE3=往事只能回味
TTITLE4=半夢半醒之間
TTITLE5=人生舞台
TTITLE6=一杯咖啡
TTITLE7=相逢在小樹林
TTITLE8=丑小鴨
TTITLE9=沿著湖畔找到你
TTITLE10=賣餛飩
TTITLE11=不會再回頭
EXTD=
EXTT0=
EXTT1=
EXTT2=
EXTT3=
EXTT4=
EXTT5=
EXTT6=
EXTT7=
EXTT8=
EXTT9=
EXTT10=
EXTT11=
PLAYORDER=
